<?xml version="1.0" encoding="UTF-8" standalone="no"?>
<!DOCTYPE svg PUBLIC "-//W3C//DTD SVG 1.1//EN"
 "http://www.w3.org/Graphics/SVG/1.1/DTD/svg11.dtd">
<!-- Generated by graphviz version 2.43.0 (0)
 -->
<!-- Title: ArchitectureDiagram Pages: 1 -->
<svg width="481pt" height="299pt"
 viewBox="0.00 0.00 480.50 299.00" xmlns="http://www.w3.org/2000/svg" xmlns:xlink="http://www.w3.org/1999/xlink">
<g id="graph0" class="graph" transform="scale(1 1) rotate(0) translate(4 295)">
<title>ArchitectureDiagram</title>
<polygon fill="white" stroke="transparent" points="-4,4 -4,-295 476.5,-295 476.5,4 -4,4"/>
<text text-anchor="middle" x="236.25" y="-7.8" font-family="Times,serif" font-size="14.00">ArchitectureDiagram</text>
<g id="clust1" class="cluster">
<title>clusterArchitecture</title>
<polygon fill="lightyellow" stroke="#eedd82" points="8,-87 8,-283 369,-283 369,-87 8,-87"/>
</g>
<!-- library.application -->
<g id="node1" class="node">
<title>library.application</title>
<polygon fill="#eedd82" stroke="black" points="263,-203 91,-203 91,-199 87,-199 87,-195 91,-195 91,-175 87,-175 87,-171 91,-171 91,-167 263,-167 263,-203"/>
<polyline fill="none" stroke="black" points="91,-199 95,-199 95,-195 91,-195 "/>
<polyline fill="none" stroke="black" points="91,-175 95,-175 95,-171 91,-171 "/>
<text text-anchor="middle" x="177" y="-180" font-family="Times,serif" font-size="20.00">ビジネスアクション</text>
</g>
<!-- library.domain -->
<g id="node2" class="node">
<title>library.domain</title>
<polygon fill="#eedd82" stroke="black" points="244.5,-131 107.5,-131 107.5,-127 103.5,-127 103.5,-123 107.5,-123 107.5,-103 103.5,-103 103.5,-99 107.5,-99 107.5,-95 244.5,-95 244.5,-131"/>
<polyline fill="none" stroke="black" points="107.5,-127 111.5,-127 111.5,-123 107.5,-123 "/>
<polyline fill="none" stroke="black" points="107.5,-103 111.5,-103 111.5,-99 107.5,-99 "/>
<text text-anchor="middle" x="176" y="-108" font-family="Times,serif" font-size="20.00">ビジネスルール</text>
</g>
<!-- library.application&#45;&gt;library.domain -->
<g id="edge8" class="edge">
<title>library.application&#45;&gt;library.domain</title>
<path fill="none" stroke="black" d="M176,-166.83C176,-166.83 176,-141.41 176,-141.41"/>
<polygon fill="black" stroke="black" points="179.5,-141.41 176,-131.41 172.5,-141.41 179.5,-141.41"/>
</g>
<!-- org.springframework -->
<g id="node5" class="node">
<title>org.springframework</title>
<polygon fill="lightgrey" stroke="black" points="414,-59 246,-59 246,-55 242,-55 242,-51 246,-51 246,-31 242,-31 242,-27 246,-27 246,-23 414,-23 414,-59"/>
<polyline fill="none" stroke="black" points="246,-55 250,-55 250,-51 246,-51 "/>
<polyline fill="none" stroke="black" points="246,-31 250,-31 250,-27 246,-27 "/>
<text text-anchor="middle" x="330" y="-37.3" font-family="Times,serif" font-size="14.00">org.springframework</text>
</g>
<!-- library.application&#45;&gt;org.springframework -->
<g id="edge4" class="edge">
<title>library.application&#45;&gt;org.springframework</title>
<path fill="none" stroke="black" d="M254.5,-166.76C254.5,-166.76 254.5,-69.09 254.5,-69.09"/>
<polygon fill="black" stroke="black" points="258,-69.09 254.5,-59.09 251,-69.09 258,-69.09"/>
</g>
<!-- library.domain&#45;&gt;org.springframework -->
<g id="edge1" class="edge">
<title>library.domain&#45;&gt;org.springframework</title>
<path fill="none" stroke="black" d="M236.25,-94.83C236.25,-73.5 236.25,-41 236.25,-41 236.25,-41 237.22,-41 237.22,-41"/>
<polygon fill="black" stroke="black" points="235.93,-44.5 245.93,-41 235.93,-37.5 235.93,-44.5"/>
</g>
<!-- jakarta.validation -->
<g id="node6" class="node">
<title>jakarta.validation</title>
<polygon fill="lightgrey" stroke="black" points="228,-59 86,-59 86,-55 82,-55 82,-51 86,-51 86,-31 82,-31 82,-27 86,-27 86,-23 228,-23 228,-59"/>
<polyline fill="none" stroke="black" points="86,-55 90,-55 90,-51 86,-51 "/>
<polyline fill="none" stroke="black" points="86,-31 90,-31 90,-27 86,-27 "/>
<text text-anchor="middle" x="157" y="-37.3" font-family="Times,serif" font-size="14.00">jakarta.validation</text>
</g>
<!-- library.domain&#45;&gt;jakarta.validation -->
<g id="edge2" class="edge">
<title>library.domain&#45;&gt;jakarta.validation</title>
<path fill="none" stroke="black" d="M167.75,-94.83C167.75,-94.83 167.75,-69.41 167.75,-69.41"/>
<polygon fill="black" stroke="black" points="171.25,-69.41 167.75,-59.41 164.25,-69.41 171.25,-69.41"/>
</g>
<!-- library.infrastructure -->
<g id="node3" class="node">
<title>library.infrastructure</title>
<polygon fill="#eedd82" stroke="black" points="360.5,-275 223.5,-275 223.5,-271 219.5,-271 219.5,-267 223.5,-267 223.5,-247 219.5,-247 219.5,-243 223.5,-243 223.5,-239 360.5,-239 360.5,-275"/>
<polyline fill="none" stroke="black" points="223.5,-271 227.5,-271 227.5,-267 223.5,-267 "/>
<polyline fill="none" stroke="black" points="223.5,-247 227.5,-247 227.5,-243 223.5,-243 "/>
<text text-anchor="middle" x="292" y="-252" font-family="Times,serif" font-size="20.00">データソース層</text>
</g>
<!-- library.infrastructure&#45;&gt;library.application -->
<g id="edge5" class="edge">
<title>library.infrastructure&#45;&gt;library.application</title>
<path fill="none" stroke="black" d="M243.25,-238.83C243.25,-238.83 243.25,-213.41 243.25,-213.41"/>
<polygon fill="black" stroke="black" points="246.75,-213.41 243.25,-203.41 239.75,-213.41 246.75,-213.41"/>
</g>
<!-- library.infrastructure&#45;&gt;library.domain -->
<g id="edge11" class="edge">
<title>library.infrastructure&#45;&gt;library.domain</title>
<path fill="none" stroke="black" d="M287.38,-238.76C287.38,-200.01 287.38,-113 287.38,-113 287.38,-113 254.63,-113 254.63,-113"/>
<polygon fill="black" stroke="black" points="254.63,-109.5 244.63,-113 254.63,-116.5 254.63,-109.5"/>
</g>
<!-- library.infrastructure&#45;&gt;org.springframework -->
<g id="edge7" class="edge">
<title>library.infrastructure&#45;&gt;org.springframework</title>
<path fill="none" stroke="black" d="M336.12,-238.96C336.12,-238.96 336.12,-69.15 336.12,-69.15"/>
<polygon fill="black" stroke="black" points="339.63,-69.15 336.12,-59.15 332.63,-69.15 339.63,-69.15"/>
</g>
<!-- org.apache -->
<g id="node8" class="node">
<title>org.apache</title>
<polygon fill="lightgrey" stroke="black" points="472.5,-203 377.5,-203 377.5,-199 373.5,-199 373.5,-195 377.5,-195 377.5,-175 373.5,-175 373.5,-171 377.5,-171 377.5,-167 472.5,-167 472.5,-203"/>
<polyline fill="none" stroke="black" points="377.5,-199 381.5,-199 381.5,-195 377.5,-195 "/>
<polyline fill="none" stroke="black" points="377.5,-175 381.5,-175 381.5,-171 377.5,-171 "/>
<text text-anchor="middle" x="425" y="-181.3" font-family="Times,serif" font-size="14.00">org.apache</text>
</g>
<!-- library.infrastructure&#45;&gt;org.apache -->
<g id="edge10" class="edge">
<title>library.infrastructure&#45;&gt;org.apache</title>
<path fill="none" stroke="black" d="M360.84,-257C393.29,-257 425,-257 425,-257 425,-257 425,-213.17 425,-213.17"/>
<polygon fill="black" stroke="black" points="428.5,-213.17 425,-203.17 421.5,-213.17 428.5,-213.17"/>
</g>
<!-- library.presentation -->
<g id="node4" class="node">
<title>library.presentation</title>
<polygon fill="#eedd82" stroke="black" points="205.5,-275 16.5,-275 16.5,-271 12.5,-271 12.5,-267 16.5,-267 16.5,-247 12.5,-247 12.5,-243 16.5,-243 16.5,-239 205.5,-239 205.5,-275"/>
<polyline fill="none" stroke="black" points="16.5,-271 20.5,-271 20.5,-267 16.5,-267 "/>
<polyline fill="none" stroke="black" points="16.5,-247 20.5,-247 20.5,-243 16.5,-243 "/>
<text text-anchor="middle" x="111" y="-252" font-family="Times,serif" font-size="20.00">プレゼンテーション層</text>
</g>
<!-- library.presentation&#45;&gt;library.application -->
<g id="edge6" class="edge">
<title>library.presentation&#45;&gt;library.application</title>
<path fill="none" stroke="black" d="M129.17,-238.83C129.17,-238.83 129.17,-213.41 129.17,-213.41"/>
<polygon fill="black" stroke="black" points="132.67,-213.41 129.17,-203.41 125.67,-213.41 132.67,-213.41"/>
</g>
<!-- library.presentation&#45;&gt;library.domain -->
<g id="edge12" class="edge">
<title>library.presentation&#45;&gt;library.domain</title>
<path fill="none" stroke="black" d="M51.25,-238.76C51.25,-200.01 51.25,-113 51.25,-113 51.25,-113 97.42,-113 97.42,-113"/>
<polygon fill="black" stroke="black" points="97.42,-116.5 107.42,-113 97.42,-109.5 97.42,-116.5"/>
</g>
<!-- library.presentation&#45;&gt;org.springframework -->
<g id="edge9" class="edge">
<title>library.presentation&#45;&gt;org.springframework</title>
<path fill="none" stroke="black" d="M167.33,-238.58C167.33,-229.72 167.33,-221 167.33,-221 167.33,-221 311.75,-221 311.75,-221 311.75,-221 311.75,-69.25 311.75,-69.25"/>
<polygon fill="black" stroke="black" points="315.25,-69.25 311.75,-59.25 308.25,-69.25 315.25,-69.25"/>
</g>
<!-- library -->
<g id="node7" class="node">
<title>library</title>
<polygon fill="lightgrey" stroke="black" points="442.5,-131 377.5,-131 377.5,-127 373.5,-127 373.5,-123 377.5,-123 377.5,-103 373.5,-103 373.5,-99 377.5,-99 377.5,-95 442.5,-95 442.5,-131"/>
<polyline fill="none" stroke="black" points="377.5,-127 381.5,-127 381.5,-123 377.5,-123 "/>
<polyline fill="none" stroke="black" points="377.5,-103 381.5,-103 381.5,-99 377.5,-99 "/>
<text text-anchor="middle" x="410" y="-109.3" font-family="Times,serif" font-size="14.00">library</text>
</g>
<!-- library&#45;&gt;org.springframework -->
<g id="edge3" class="edge">
<title>library&#45;&gt;org.springframework</title>
<path fill="none" stroke="black" d="M395.75,-94.83C395.75,-94.83 395.75,-69.41 395.75,-69.41"/>
<polygon fill="black" stroke="black" points="399.25,-69.41 395.75,-59.41 392.25,-69.41 399.25,-69.41"/>
</g>
</g>
</svg>
