<?xml version="1.0" encoding="UTF-8" standalone="no"?>
<!DOCTYPE svg PUBLIC "-//W3C//DTD SVG 1.1//EN"
 "http://www.w3.org/Graphics/SVG/1.1/DTD/svg11.dtd">
<!-- Generated by graphviz version 2.43.0 (0)
 -->
<!-- Title: CategoryDiagram Pages: 1 -->
<svg width="1507pt" height="1015pt"
 viewBox="0.00 0.00 1507.00 1015.00" xmlns="http://www.w3.org/2000/svg" xmlns:xlink="http://www.w3.org/1999/xlink">
<g id="graph0" class="graph" transform="scale(1 1) rotate(0) translate(4 988)">
<title>CategoryDiagram</title>
<polygon fill="white" stroke="transparent" points="-4,27 -4,-988 1503,-988 1503,27 -4,27"/>
<text text-anchor="middle" x="749.5" y="15.2" font-family="Times,serif" font-size="14.00">CategoryDiagram</text>
<g id="clust1" class="cluster">
<title>cluster_library.domain.model.retention</title>
<polygon fill="none" stroke="lightgray" points="229.74,-828.14 229.74,-951.14 408.74,-951.14 408.74,-828.14 229.74,-828.14"/>
<text text-anchor="middle" x="319.24" y="-935.94" font-family="Times,serif" font-size="14.00">retention</text>
</g>
<g id="clust2" class="cluster">
<title>cluster_library.domain.model.material</title>
<polygon fill="none" stroke="lightgray" points="828.24,-552.14 828.24,-951.14 1326.24,-951.14 1326.24,-552.14 828.24,-552.14"/>
<text text-anchor="middle" x="1077.24" y="-935.94" font-family="Times,serif" font-size="14.00">material</text>
</g>
<g id="clust3" class="cluster">
<title>cluster_library.domain.model.material.entry</title>
<polygon fill="none" stroke="lightgray" points="1196.48,-560.28 1196.48,-683.28 1318.48,-683.28 1318.48,-560.28 1196.48,-560.28"/>
<text text-anchor="middle" x="1257.48" y="-668.08" font-family="Times,serif" font-size="14.00">entry</text>
</g>
<g id="clust4" class="cluster">
<title>cluster_library.domain.model.material.item</title>
<polygon fill="none" stroke="lightgray" points="835.98,-559.78 835.98,-919.78 1144.98,-919.78 1144.98,-559.78 835.98,-559.78"/>
<text text-anchor="middle" x="990.48" y="-904.58" font-family="Times,serif" font-size="14.00">item</text>
</g>
<g id="clust5" class="cluster">
<title>cluster_library.domain.model.material.instock</title>
<polygon fill="none" stroke="lightgray" points="1196.48,-728.28 1196.48,-851.28 1292.48,-851.28 1292.48,-728.28 1196.48,-728.28"/>
<text text-anchor="middle" x="1244.48" y="-836.08" font-family="Times,serif" font-size="14.00">instock</text>
</g>
<g id="clust6" class="cluster">
<title>cluster_library.domain.model.reservation</title>
<polygon fill="none" stroke="lightgray" points="827.74,-0.14 827.74,-487.14 1498.74,-487.14 1498.74,-0.14 827.74,-0.14"/>
<text text-anchor="middle" x="1163.24" y="-471.94" font-family="Times,serif" font-size="14.00">reservation</text>
</g>
<g id="clust7" class="cluster">
<title>cluster_library.domain.model.reservation.availability</title>
<polygon fill="none" stroke="lightgray" points="835.48,-8.28 835.48,-291.28 1214.48,-291.28 1214.48,-8.28 835.48,-8.28"/>
<text text-anchor="middle" x="1024.98" y="-276.08" font-family="Times,serif" font-size="14.00">availability</text>
</g>
<g id="clust8" class="cluster">
<title>cluster_library.domain.model.reservation.rule</title>
<polygon fill="none" stroke="lightgray" points="1210.98,-333.28 1210.98,-456.28 1490.98,-456.28 1490.98,-333.28 1210.98,-333.28"/>
<text text-anchor="middle" x="1350.98" y="-441.08" font-family="Times,serif" font-size="14.00">rule</text>
</g>
<g id="clust9" class="cluster">
<title>cluster_library.domain.model.delay</title>
<polygon fill="none" stroke="lightgray" points="-0.26,-827.64 -0.26,-971.64 166.74,-971.64 166.74,-827.64 -0.26,-827.64"/>
<text text-anchor="middle" x="83.24" y="-956.44" font-family="Times,serif" font-size="14.00">delay</text>
</g>
<g id="clust10" class="cluster">
<title>cluster_library.domain.model.loan</title>
<polygon fill="none" stroke="lightgray" points="91.74,-92.14 91.74,-735.14 770.74,-735.14 770.74,-92.14 91.74,-92.14"/>
<text text-anchor="middle" x="431.24" y="-719.94" font-family="Times,serif" font-size="14.00">loan</text>
</g>
<g id="clust11" class="cluster">
<title>cluster_library.domain.model.loan.rule</title>
<polygon fill="none" stroke="lightgray" points="99.48,-100.28 99.48,-507.28 594.48,-507.28 594.48,-100.28 99.48,-100.28"/>
<text text-anchor="middle" x="346.98" y="-492.08" font-family="Times,serif" font-size="14.00">rule</text>
</g>
<g id="clust12" class="cluster">
<title>cluster_library.domain.model.loan.due</title>
<polygon fill="none" stroke="lightgray" points="617.48,-581.28 617.48,-704.28 762.48,-704.28 762.48,-581.28 617.48,-581.28"/>
<text text-anchor="middle" x="689.98" y="-689.08" font-family="Times,serif" font-size="14.00">due</text>
</g>
<g id="clust13" class="cluster">
<title>cluster_library.domain.model.member</title>
<polygon fill="none" stroke="lightgray" points="459.74,-827.64 459.74,-983.64 734.74,-983.64 734.74,-827.64 459.74,-827.64"/>
<text text-anchor="middle" x="597.24" y="-968.44" font-family="Times,serif" font-size="14.00">member</text>
</g>
<!-- library.domain.model.retention.MaterialMatching -->
<g id="node1" class="node">
<title>library.domain.model.retention.MaterialMatching</title>
<g id="a_node1"><a xlink:href="./enum.html#library.domain.model.retention.MaterialMatching" xlink:title="&lt;TABLE&gt;">
<polygon fill="#eedd82" stroke="black" points="400.48,-919.78 237.48,-919.78 237.48,-835.78 400.48,-835.78 400.48,-919.78"/>
<text text-anchor="start" x="247.98" y="-902.58" font-family="Times,serif" font-size="14.00">所蔵品と本の照合結果</text>
<text text-anchor="start" x="254.98" y="-887.58" font-family="Times,serif" font-size="14.00">MaterialMatching</text>
<polygon fill="none" stroke="black" points="245.98,-860.78 245.98,-881.78 392.98,-881.78 392.98,-860.78 245.98,-860.78"/>
<text text-anchor="start" x="304.98" y="-867.58" font-family="Times,serif" font-size="14.00">一致</text>
<polygon fill="none" stroke="black" points="245.98,-839.78 245.98,-860.78 392.98,-860.78 392.98,-839.78 245.98,-839.78"/>
<text text-anchor="start" x="297.98" y="-846.58" font-family="Times,serif" font-size="14.00">不一致</text>
</a>
</g>
</g>
<!-- library.domain.model.material.entry.EntryType -->
<g id="node2" class="node">
<title>library.domain.model.material.entry.EntryType</title>
<g id="a_node2"><a xlink:href="./enum.html#library.domain.model.material.entry.EntryType" xlink:title="&lt;TABLE&gt;">
<polygon fill="lemonchiffon" stroke="black" points="1310.71,-651.92 1204.71,-651.92 1204.71,-567.92 1310.71,-567.92 1310.71,-651.92"/>
<text text-anchor="start" x="1214.71" y="-634.72" font-family="Times,serif" font-size="14.00">所蔵品目種別</text>
<text text-anchor="start" x="1219.71" y="-619.72" font-family="Times,serif" font-size="14.00">EntryType</text>
<polygon fill="none" stroke="black" points="1212.71,-592.92 1212.71,-613.92 1302.71,-613.92 1302.71,-592.92 1212.71,-592.92"/>
<text text-anchor="start" x="1243.21" y="-599.72" font-family="Times,serif" font-size="14.00">図書</text>
<polygon fill="none" stroke="black" points="1212.71,-571.92 1212.71,-592.92 1302.71,-592.92 1302.71,-571.92 1212.71,-571.92"/>
<text text-anchor="start" x="1221.71" y="-578.72" font-family="Times,serif" font-size="14.00">視聴覚資料</text>
</a>
</g>
</g>
<!-- library.domain.model.material.item.ItemLoanability -->
<g id="node3" class="node">
<title>library.domain.model.material.item.ItemLoanability</title>
<g id="a_node3"><a xlink:href="./enum.html#library.domain.model.material.item.ItemLoanability" xlink:title="&lt;TABLE&gt;">
<polygon fill="#eedd82" stroke="black" points="1038.21,-693.42 844.21,-693.42 844.21,-567.42 1038.21,-567.42 1038.21,-693.42"/>
<text text-anchor="start" x="883.71" y="-676.22" font-family="Times,serif" font-size="14.00">所蔵品の貸出可否</text>
<text text-anchor="start" x="884.71" y="-661.22" font-family="Times,serif" font-size="14.00">ItemLoanability</text>
<polygon fill="none" stroke="black" points="852.21,-634.42 852.21,-655.42 1030.21,-655.42 1030.21,-634.42 852.21,-634.42"/>
<text text-anchor="start" x="912.21" y="-641.22" font-family="Times,serif" font-size="14.00">貸出可能</text>
<polygon fill="none" stroke="black" points="852.21,-613.42 852.21,-634.42 1030.21,-634.42 1030.21,-613.42 852.21,-613.42"/>
<text text-anchor="start" x="862.71" y="-620.22" font-family="Times,serif" font-size="14.00">貸出中により貸出不可能</text>
<polygon fill="none" stroke="black" points="852.21,-592.42 852.21,-613.42 1030.21,-613.42 1030.21,-592.42 852.21,-592.42"/>
<text text-anchor="start" x="862.71" y="-599.22" font-family="Times,serif" font-size="14.00">予約中により貸出不可能</text>
<polygon fill="none" stroke="black" points="852.21,-571.42 852.21,-592.42 1030.21,-592.42 1030.21,-571.42 852.21,-571.42"/>
<text text-anchor="start" x="855.21" y="-578.22" font-family="Times,serif" font-size="14.00">その他の理由で貸出不可能</text>
</a>
</g>
</g>
<!-- library.domain.model.material.item.ItemStatus -->
<g id="node4" class="node">
<title>library.domain.model.material.item.ItemStatus</title>
<g id="a_node4"><a xlink:href="./enum.html#library.domain.model.material.item.ItemStatus" xlink:title="&lt;TABLE&gt;">
<polygon fill="#eedd82" stroke="black" points="1137.21,-888.42 1031.21,-888.42 1031.21,-720.42 1137.21,-720.42 1137.21,-888.42"/>
<text text-anchor="start" x="1041.21" y="-871.22" font-family="Times,serif" font-size="14.00">所蔵品の状態</text>
<text text-anchor="start" x="1044.21" y="-856.22" font-family="Times,serif" font-size="14.00">ItemStatus</text>
<polygon fill="none" stroke="black" points="1039.21,-829.42 1039.21,-850.42 1129.21,-850.42 1129.21,-829.42 1039.21,-829.42"/>
<text text-anchor="start" x="1062.71" y="-836.22" font-family="Times,serif" font-size="14.00">未登録</text>
<polygon fill="none" stroke="black" points="1039.21,-808.42 1039.21,-829.42 1129.21,-829.42 1129.21,-808.42 1039.21,-808.42"/>
<text text-anchor="start" x="1062.71" y="-815.22" font-family="Times,serif" font-size="14.00">在庫中</text>
<polygon fill="none" stroke="black" points="1039.21,-787.42 1039.21,-808.42 1129.21,-808.42 1129.21,-787.42 1039.21,-787.42"/>
<text text-anchor="start" x="1062.71" y="-794.22" font-family="Times,serif" font-size="14.00">予約中</text>
<polygon fill="none" stroke="black" points="1039.21,-766.42 1039.21,-787.42 1129.21,-787.42 1129.21,-766.42 1039.21,-766.42"/>
<text text-anchor="start" x="1062.71" y="-773.22" font-family="Times,serif" font-size="14.00">取置中</text>
<polygon fill="none" stroke="black" points="1039.21,-745.42 1039.21,-766.42 1129.21,-766.42 1129.21,-745.42 1039.21,-745.42"/>
<text text-anchor="start" x="1062.71" y="-752.22" font-family="Times,serif" font-size="14.00">貸出中</text>
<polygon fill="none" stroke="black" points="1039.21,-724.42 1039.21,-745.42 1129.21,-745.42 1129.21,-724.42 1039.21,-724.42"/>
<text text-anchor="start" x="1062.71" y="-731.22" font-family="Times,serif" font-size="14.00">その他</text>
</a>
</g>
</g>
<!-- library.domain.model.material.instock.InStock -->
<g id="node5" class="node">
<title>library.domain.model.material.instock.InStock</title>
<g id="a_node5"><a xlink:href="./enum.html#library.domain.model.material.instock.InStock" xlink:title="&lt;TABLE&gt;">
<polygon fill="#eedd82" stroke="black" points="1284.71,-819.92 1204.71,-819.92 1204.71,-735.92 1284.71,-735.92 1284.71,-819.92"/>
<text text-anchor="start" x="1215.71" y="-802.72" font-family="Times,serif" font-size="14.00">在庫有無</text>
<text text-anchor="start" x="1217.21" y="-787.72" font-family="Times,serif" font-size="14.00">InStock</text>
<polygon fill="none" stroke="black" points="1212.71,-760.92 1212.71,-781.92 1276.71,-781.92 1276.71,-760.92 1212.71,-760.92"/>
<text text-anchor="start" x="1215.71" y="-767.72" font-family="Times,serif" font-size="14.00">在庫あり</text>
<polygon fill="none" stroke="black" points="1212.71,-739.92 1212.71,-760.92 1276.71,-760.92 1276.71,-739.92 1212.71,-739.92"/>
<text text-anchor="start" x="1215.71" y="-746.72" font-family="Times,serif" font-size="14.00">在庫なし</text>
</a>
</g>
</g>
<!-- library.domain.model.reservation.ReservationStatus -->
<g id="node6" class="node">
<title>library.domain.model.reservation.ReservationStatus</title>
<g id="a_node6"><a xlink:href="./enum.html#library.domain.model.reservation.ReservationStatus" xlink:title="&lt;TABLE&gt;">
<polygon fill="lemonchiffon" stroke="black" points="1163.48,-416.78 1010.48,-416.78 1010.48,-332.78 1163.48,-332.78 1163.48,-416.78"/>
<text text-anchor="start" x="1051.48" y="-399.58" font-family="Times,serif" font-size="14.00">予約の状態</text>
<text text-anchor="start" x="1020.98" y="-384.58" font-family="Times,serif" font-size="14.00">ReservationStatus</text>
<polygon fill="none" stroke="black" points="1018.98,-357.78 1018.98,-378.78 1155.98,-378.78 1155.98,-357.78 1018.98,-357.78"/>
<text text-anchor="start" x="1065.98" y="-364.58" font-family="Times,serif" font-size="14.00">未準備</text>
<polygon fill="none" stroke="black" points="1018.98,-336.78 1018.98,-357.78 1155.98,-357.78 1155.98,-336.78 1018.98,-336.78"/>
<text text-anchor="start" x="1065.98" y="-343.58" font-family="Times,serif" font-size="14.00">消込済</text>
</a>
</g>
</g>
<!-- library.domain.model.reservation.availability.RetentionAvailability -->
<g id="node7" class="node">
<title>library.domain.model.reservation.availability.RetentionAvailability</title>
<g id="a_node7"><a xlink:href="./enum.html#library.domain.model.reservation.availability.RetentionAvailability" xlink:title="&lt;TABLE&gt;">
<polygon fill="lemonchiffon" stroke="black" points="1206.21,-259.92 1035.21,-259.92 1035.21,-175.92 1206.21,-175.92 1206.21,-259.92"/>
<text text-anchor="start" x="1092.21" y="-242.72" font-family="Times,serif" font-size="14.00">取置可否</text>
<text text-anchor="start" x="1045.71" y="-227.72" font-family="Times,serif" font-size="14.00">RetentionAvailability</text>
<polygon fill="none" stroke="black" points="1043.71,-200.92 1043.71,-221.92 1198.71,-221.92 1198.71,-200.92 1043.71,-200.92"/>
<text text-anchor="start" x="1092.21" y="-207.72" font-family="Times,serif" font-size="14.00">取置可能</text>
<polygon fill="none" stroke="black" points="1043.71,-179.92 1043.71,-200.92 1198.71,-200.92 1198.71,-179.92 1043.71,-179.92"/>
<text text-anchor="start" x="1092.21" y="-186.72" font-family="Times,serif" font-size="14.00">取置不可</text>
</a>
</g>
</g>
<!-- library.domain.model.reservation.availability.ReservationAvailability -->
<g id="node8" class="node">
<title>library.domain.model.reservation.availability.ReservationAvailability</title>
<g id="a_node8"><a xlink:href="./enum.html#library.domain.model.reservation.availability.ReservationAvailability" xlink:title="&lt;TABLE&gt;">
<polygon fill="lemonchiffon" stroke="black" points="1029.71,-141.92 843.71,-141.92 843.71,-15.92 1029.71,-15.92 1029.71,-141.92"/>
<text text-anchor="start" x="907.71" y="-124.72" font-family="Times,serif" font-size="14.00">予約可否</text>
<text text-anchor="start" x="853.71" y="-109.72" font-family="Times,serif" font-size="14.00">ReservationAvailability</text>
<polygon fill="none" stroke="black" points="851.71,-82.92 851.71,-103.92 1021.71,-103.92 1021.71,-82.92 851.71,-82.92"/>
<text text-anchor="start" x="858.21" y="-89.72" font-family="Times,serif" font-size="14.00">冊数制限により予約不可</text>
<polygon fill="none" stroke="black" points="851.71,-61.92 851.71,-82.92 1021.71,-82.92 1021.71,-61.92 851.71,-61.92"/>
<text text-anchor="start" x="872.21" y="-68.72" font-family="Times,serif" font-size="14.00">視聴覚資料予約不可</text>
<polygon fill="none" stroke="black" points="851.71,-40.92 851.71,-61.92 1021.71,-61.92 1021.71,-40.92 851.71,-40.92"/>
<text text-anchor="start" x="879.21" y="-47.72" font-family="Times,serif" font-size="14.00">予約一定期間停止</text>
<polygon fill="none" stroke="black" points="851.71,-19.92 851.71,-40.92 1021.71,-40.92 1021.71,-19.92 851.71,-19.92"/>
<text text-anchor="start" x="907.71" y="-26.72" font-family="Times,serif" font-size="14.00">予約可能</text>
</a>
</g>
</g>
<!-- library.domain.model.reservation.rule.RestrictionOfReservationQuantity -->
<g id="node9" class="node">
<title>library.domain.model.reservation.rule.RestrictionOfReservationQuantity</title>
<g id="a_node9"><a xlink:href="./enum.html#library.domain.model.reservation.rule.RestrictionOfReservationQuantity" xlink:title="&lt;TABLE&gt;">
<polygon fill="lemonchiffon" stroke="black" points="1483.21,-424.92 1219.21,-424.92 1219.21,-340.92 1483.21,-340.92 1483.21,-424.92"/>
<text text-anchor="start" x="1322.21" y="-407.72" font-family="Times,serif" font-size="14.00">予約制限</text>
<text text-anchor="start" x="1229.21" y="-392.72" font-family="Times,serif" font-size="14.00">RestrictionOfReservationQuantity</text>
<polygon fill="none" stroke="black" points="1227.21,-365.92 1227.21,-386.92 1475.21,-386.92 1475.21,-365.92 1227.21,-365.92"/>
<text text-anchor="start" x="1286.71" y="-372.72" font-family="Times,serif" font-size="14.00">予約点数まで貸出可</text>
<polygon fill="none" stroke="black" points="1227.21,-344.92 1227.21,-365.92 1475.21,-365.92 1475.21,-344.92 1227.21,-344.92"/>
<text text-anchor="start" x="1322.21" y="-351.72" font-family="Times,serif" font-size="14.00">予約停止</text>
</a>
</g>
</g>
<!-- library.domain.model.delay.DelayStatus -->
<g id="node10" class="node">
<title>library.domain.model.delay.DelayStatus</title>
<g id="a_node10"><a xlink:href="./enum.html#library.domain.model.delay.DelayStatus" xlink:title="&lt;TABLE&gt;">
<polygon fill="lemonchiffon" stroke="black" points="158.48,-940.78 7.48,-940.78 7.48,-835.78 158.48,-835.78 158.48,-940.78"/>
<text text-anchor="start" x="54.48" y="-923.08" font-family="Times,serif" font-size="14.00">遅延状態</text>
<text text-anchor="start" x="39.48" y="-908.08" font-family="Times,serif" font-size="14.00">DelayStatus</text>
<polygon fill="none" stroke="black" points="15.98,-881.28 15.98,-902.28 150.98,-902.28 150.98,-881.28 15.98,-881.28"/>
<text text-anchor="start" x="18.98" y="-888.08" font-family="Times,serif" font-size="14.00">遅延日数１５日未満</text>
<polygon fill="none" stroke="black" points="15.98,-860.28 15.98,-881.28 150.98,-881.28 150.98,-860.28 15.98,-860.28"/>
<text text-anchor="start" x="18.98" y="-867.08" font-family="Times,serif" font-size="14.00">遅延日数２ヶ月未満</text>
<polygon fill="none" stroke="black" points="15.98,-839.28 15.98,-860.28 150.98,-860.28 150.98,-839.28 15.98,-839.28"/>
<text text-anchor="start" x="18.98" y="-846.08" font-family="Times,serif" font-size="14.00">遅延日数２ヶ月以上</text>
</a>
</g>
</g>
<!-- library.domain.model.loan.rule.RestrictionOfDelay -->
<g id="node11" class="node">
<title>library.domain.model.loan.rule.RestrictionOfDelay</title>
<g id="a_node11"><a xlink:href="./enum.html#library.domain.model.loan.rule.RestrictionOfDelay" xlink:title="&lt;TABLE&gt;">
<polygon fill="greenyellow" stroke="black" points="330.21,-298.42 107.21,-298.42 107.21,-193.42 330.21,-193.42 330.21,-298.42"/>
<text text-anchor="start" x="117.71" y="-280.72" font-family="Times,serif" font-size="14.00">*遅延状態による制限(判定結果)</text>
<text text-anchor="start" x="151.21" y="-265.72" font-family="Times,serif" font-size="14.00">RestrictionOfDelay</text>
<polygon fill="none" stroke="black" points="115.71,-238.92 115.71,-259.92 322.71,-259.92 322.71,-238.92 115.71,-238.92"/>
<text text-anchor="start" x="190.21" y="-245.72" font-family="Times,serif" font-size="14.00">貸出可能</text>
<polygon fill="none" stroke="black" points="115.71,-217.92 115.71,-238.92 322.71,-238.92 322.71,-217.92 115.71,-217.92"/>
<text text-anchor="start" x="176.21" y="-224.72" font-family="Times,serif" font-size="14.00">新規貸出不可</text>
<polygon fill="none" stroke="black" points="115.71,-196.92 115.71,-217.92 322.71,-217.92 322.71,-196.92 115.71,-196.92"/>
<text text-anchor="start" x="190.21" y="-203.72" font-family="Times,serif" font-size="14.00">貸出停止</text>
</a>
</g>
</g>
<!-- library.domain.model.loan.rule.Loanability -->
<g id="node12" class="node">
<title>library.domain.model.loan.rule.Loanability</title>
<g id="a_node12"><a xlink:href="./enum.html#library.domain.model.loan.rule.Loanability" xlink:title="&lt;TABLE&gt;">
<polygon fill="#eedd82" stroke="black" points="490.21,-476.42 311.21,-476.42 311.21,-329.42 490.21,-329.42 490.21,-476.42"/>
<text text-anchor="start" x="372.21" y="-458.72" font-family="Times,serif" font-size="14.00">貸出可否</text>
<text text-anchor="start" x="361.21" y="-443.72" font-family="Times,serif" font-size="14.00">Loanability</text>
<polygon fill="none" stroke="black" points="319.71,-416.92 319.71,-437.92 482.71,-437.92 482.71,-416.92 319.71,-416.92"/>
<text text-anchor="start" x="322.71" y="-423.72" font-family="Times,serif" font-size="14.00">冊数制限により貸出不可</text>
<polygon fill="none" stroke="black" points="319.71,-395.92 319.71,-416.92 482.71,-416.92 482.71,-395.92 319.71,-395.92"/>
<text text-anchor="start" x="336.71" y="-402.72" font-family="Times,serif" font-size="14.00">視聴覚資料貸出不可</text>
<polygon fill="none" stroke="black" points="319.71,-374.92 319.71,-395.92 482.71,-395.92 482.71,-374.92 319.71,-374.92"/>
<text text-anchor="start" x="358.21" y="-381.72" font-family="Times,serif" font-size="14.00">新規貸出不可</text>
<polygon fill="none" stroke="black" points="319.71,-353.92 319.71,-374.92 482.71,-374.92 482.71,-353.92 319.71,-353.92"/>
<text text-anchor="start" x="343.71" y="-360.72" font-family="Times,serif" font-size="14.00">貸出一定期間停止</text>
<polygon fill="none" stroke="black" points="319.71,-332.92 319.71,-353.92 482.71,-353.92 482.71,-332.92 319.71,-332.92"/>
<text text-anchor="start" x="372.21" y="-339.72" font-family="Times,serif" font-size="14.00">貸出可能</text>
</a>
</g>
</g>
<!-- library.domain.model.loan.rule.RestrictionOfQuantity -->
<g id="node13" class="node">
<title>library.domain.model.loan.rule.RestrictionOfQuantity</title>
<g id="a_node13"><a xlink:href="./enum.html#library.domain.model.loan.rule.RestrictionOfQuantity" xlink:title="&lt;TABLE&gt;">
<polygon fill="greenyellow" stroke="black" points="586.71,-191.92 362.71,-191.92 362.71,-107.92 586.71,-107.92 586.71,-191.92"/>
<text text-anchor="start" x="421.21" y="-174.72" font-family="Times,serif" font-size="14.00">*貸出点数の制限</text>
<text text-anchor="start" x="395.71" y="-159.72" font-family="Times,serif" font-size="14.00">RestrictionOfQuantity</text>
<polygon fill="none" stroke="black" points="370.71,-132.92 370.71,-153.92 578.71,-153.92 578.71,-132.92 370.71,-132.92"/>
<text text-anchor="start" x="373.71" y="-139.72" font-family="Times,serif" font-size="14.00">貸出１５点_視聴覚資料5点まで</text>
<polygon fill="none" stroke="black" points="370.71,-111.92 370.71,-132.92 578.71,-132.92 578.71,-111.92 370.71,-111.92"/>
<text text-anchor="start" x="373.71" y="-118.72" font-family="Times,serif" font-size="14.00">貸出２０点_視聴覚資料5点まで</text>
</a>
</g>
</g>
<!-- library.domain.model.loan.due.DueDateStatus -->
<g id="node14" class="node">
<title>library.domain.model.loan.due.DueDateStatus</title>
<g id="a_node14"><a xlink:href="./enum.html#library.domain.model.loan.due.DueDateStatus" xlink:title="&lt;TABLE&gt;">
<polygon fill="greenyellow" stroke="black" points="754.21,-672.92 625.21,-672.92 625.21,-588.92 754.21,-588.92 754.21,-672.92"/>
<text text-anchor="start" x="643.71" y="-655.72" font-family="Times,serif" font-size="14.00">*貸出期限状態</text>
<text text-anchor="start" x="635.71" y="-640.72" font-family="Times,serif" font-size="14.00">DueDateStatus</text>
<polygon fill="none" stroke="black" points="633.71,-613.92 633.71,-634.92 746.71,-634.92 746.71,-613.92 633.71,-613.92"/>
<text text-anchor="start" x="668.71" y="-620.72" font-family="Times,serif" font-size="14.00">期限内</text>
<polygon fill="none" stroke="black" points="633.71,-592.92 633.71,-613.92 746.71,-613.92 746.71,-592.92 633.71,-592.92"/>
<text text-anchor="start" x="661.21" y="-599.72" font-family="Times,serif" font-size="14.00">期限切れ</text>
</a>
</g>
</g>
<!-- library.domain.model.member.MemberStatus -->
<g id="node15" class="node">
<title>library.domain.model.member.MemberStatus</title>
<g id="a_node15"><a xlink:href="./enum.html#library.domain.model.member.MemberStatus" xlink:title="&lt;TABLE&gt;">
<polygon fill="lemonchiffon" stroke="black" points="594.48,-952.78 467.48,-952.78 467.48,-847.78 594.48,-847.78 594.48,-952.78"/>
<text text-anchor="start" x="481.48" y="-935.08" font-family="Times,serif" font-size="14.00">会員登録の状態</text>
<text text-anchor="start" x="477.98" y="-920.08" font-family="Times,serif" font-size="14.00">MemberStatus</text>
<polygon fill="none" stroke="black" points="475.98,-893.28 475.98,-914.28 586.98,-914.28 586.98,-893.28 475.98,-893.28"/>
<text text-anchor="start" x="509.98" y="-900.08" font-family="Times,serif" font-size="14.00">未登録</text>
<polygon fill="none" stroke="black" points="475.98,-872.28 475.98,-893.28 586.98,-893.28 586.98,-872.28 475.98,-872.28"/>
<text text-anchor="start" x="516.98" y="-879.08" font-family="Times,serif" font-size="14.00">有効</text>
<polygon fill="none" stroke="black" points="475.98,-851.28 475.98,-872.28 586.98,-872.28 586.98,-851.28 475.98,-851.28"/>
<text text-anchor="start" x="516.98" y="-858.08" font-family="Times,serif" font-size="14.00">無効</text>
</a>
</g>
</g>
<!-- library.domain.model.member.MemberType -->
<g id="node16" class="node">
<title>library.domain.model.member.MemberType</title>
<g id="a_node16"><a xlink:href="./enum.html#library.domain.model.member.MemberType" xlink:title="&lt;TABLE&gt;">
<polygon fill="lemonchiffon" stroke="black" points="726.48,-919.28 611.48,-919.28 611.48,-835.28 726.48,-835.28 726.48,-919.28"/>
<text text-anchor="start" x="640.48" y="-902.08" font-family="Times,serif" font-size="14.00">会員種別</text>
<text text-anchor="start" x="621.98" y="-887.08" font-family="Times,serif" font-size="14.00">MemberType</text>
<polygon fill="none" stroke="black" points="619.98,-860.28 619.98,-881.28 718.98,-881.28 718.98,-860.28 619.98,-860.28"/>
<text text-anchor="start" x="633.48" y="-867.08" font-family="Times,serif" font-size="14.00">中学生以上</text>
<polygon fill="none" stroke="black" points="619.98,-839.28 619.98,-860.28 718.98,-860.28 718.98,-839.28 619.98,-839.28"/>
<text text-anchor="start" x="633.48" y="-846.08" font-family="Times,serif" font-size="14.00">小学生以下</text>
</a>
</g>
</g>
</g>
</svg>
