<?xml version="1.0" encoding="UTF-8" standalone="no"?>
<!DOCTYPE svg PUBLIC "-//W3C//DTD SVG 1.1//EN"
 "http://www.w3.org/Graphics/SVG/1.1/DTD/svg11.dtd">
<!-- Generated by graphviz version 2.43.0 (0)
 -->
<!-- Title: ComponentRelationDiagram Pages: 1 -->
<svg width="815pt" height="410pt"
 viewBox="0.00 0.00 815.00 410.00" xmlns="http://www.w3.org/2000/svg" xmlns:xlink="http://www.w3.org/1999/xlink">
<g id="graph0" class="graph" transform="scale(1 1) rotate(0) translate(4 383)">
<title>ComponentRelationDiagram</title>
<polygon fill="white" stroke="transparent" points="-4,27 -4,-383 811,-383 811,27 -4,27"/>
<text text-anchor="middle" x="403.5" y="15.2" font-family="Times,serif" font-size="14.00">ComponentRelationDiagram</text>
<!-- library.application.service.member.MemberRepository -->
<g id="node1" class="node">
<title>library.application.service.member.MemberRepository</title>
<ellipse fill="lightgrey" stroke="black" cx="60.27" cy="-179.21" rx="60.09" ry="18"/>
<text text-anchor="middle" x="60.27" y="-177.01" font-family="Times,serif" font-size="9.00">MemberRepository</text>
</g>
<!-- library.application.service.reservation.ReservationRepository -->
<g id="node2" class="node">
<title>library.application.service.reservation.ReservationRepository</title>
<ellipse fill="lightgrey" stroke="black" cx="219.86" cy="-361.37" rx="69.72" ry="18"/>
<text text-anchor="middle" x="219.86" y="-359.17" font-family="Times,serif" font-size="9.00">ReservationRepository</text>
</g>
<!-- library.application.service.loan.LoanRepository -->
<g id="node3" class="node">
<title>library.application.service.loan.LoanRepository</title>
<ellipse fill="lightgrey" stroke="black" cx="301.95" cy="-113.9" rx="51.27" ry="18"/>
<text text-anchor="middle" x="301.95" y="-111.7" font-family="Times,serif" font-size="9.00">LoanRepository</text>
</g>
<!-- library.application.service.retention.RetentionRepository -->
<g id="node4" class="node">
<title>library.application.service.retention.RetentionRepository</title>
<ellipse fill="lightgrey" stroke="black" cx="118.62" cy="-270.54" rx="64.17" ry="18"/>
<text text-anchor="middle" x="118.62" y="-268.34" font-family="Times,serif" font-size="9.00">RetentionRepository</text>
</g>
<!-- library.application.service.retention.RetentionNotification -->
<g id="node5" class="node">
<title>library.application.service.retention.RetentionNotification</title>
<ellipse fill="lightgrey" stroke="black" cx="451.14" cy="-191.58" rx="66.95" ry="18"/>
<text text-anchor="middle" x="451.14" y="-189.38" font-family="Times,serif" font-size="9.00">RetentionNotification</text>
</g>
<!-- library.application.service.material.MaterialRepository -->
<g id="node6" class="node">
<title>library.application.service.material.MaterialRepository</title>
<ellipse fill="lightgrey" stroke="black" cx="324.52" cy="-295.1" rx="60.74" ry="18"/>
<text text-anchor="middle" x="324.52" y="-292.9" font-family="Times,serif" font-size="9.00">MaterialRepository</text>
</g>
<!-- library.application.service.item.ItemRepository -->
<g id="node7" class="node">
<title>library.application.service.item.ItemRepository</title>
<ellipse fill="lightgrey" stroke="black" cx="125.11" cy="-92.73" rx="50.46" ry="18"/>
<text text-anchor="middle" x="125.11" y="-90.53" font-family="Times,serif" font-size="9.00">ItemRepository</text>
</g>
<!-- SPRING_SERVICE -->
<g id="node8" class="node">
<title>SPRING_SERVICE</title>
<polygon fill="#eedd82" stroke="black" points="283.57,-195.11 213.57,-195.11 213.57,-191.11 209.57,-191.11 209.57,-187.11 213.57,-187.11 213.57,-167.11 209.57,-167.11 209.57,-163.11 213.57,-163.11 213.57,-159.11 283.57,-159.11 283.57,-195.11"/>
<polyline fill="none" stroke="black" points="213.57,-191.11 217.57,-191.11 217.57,-187.11 213.57,-187.11 "/>
<polyline fill="none" stroke="black" points="213.57,-167.11 217.57,-167.11 217.57,-163.11 213.57,-163.11 "/>
<text text-anchor="middle" x="248.57" y="-173.41" font-family="Times,serif" font-size="14.00">Service</text>
</g>
<!-- SPRING_SERVICE&#45;&gt;library.application.service.member.MemberRepository -->
<g id="edge4" class="edge">
<title>SPRING_SERVICE&#45;&gt;library.application.service.member.MemberRepository</title>
<path fill="none" stroke="black" d="M213.15,-177.5C189.91,-177.76 158.71,-178.11 130.55,-178.42"/>
<polygon fill="black" stroke="black" points="130.3,-174.93 120.34,-178.54 130.38,-181.93 130.3,-174.93"/>
</g>
<!-- SPRING_SERVICE&#45;&gt;library.application.service.reservation.ReservationRepository -->
<g id="edge12" class="edge">
<title>SPRING_SERVICE&#45;&gt;library.application.service.reservation.ReservationRepository</title>
<path fill="none" stroke="black" d="M245.77,-195.11C240.75,-227.31 230.2,-294.97 224.23,-333.31"/>
<polygon fill="black" stroke="black" points="220.75,-332.87 222.67,-343.29 227.67,-333.95 220.75,-332.87"/>
<text text-anchor="middle" x="230" y="-268.01" font-family="Times,serif" font-size="14.00">2</text>
</g>
<!-- SPRING_SERVICE&#45;&gt;library.application.service.loan.LoanRepository -->
<g id="edge9" class="edge">
<title>SPRING_SERVICE&#45;&gt;library.application.service.loan.LoanRepository</title>
<path fill="none" stroke="black" d="M264.01,-158.82C269.12,-152.77 274.9,-145.93 280.38,-139.43"/>
<polygon fill="black" stroke="black" points="283.32,-141.39 287.09,-131.49 277.97,-136.87 283.32,-141.39"/>
<text text-anchor="middle" x="267.2" y="-137.93" font-family="Times,serif" font-size="14.00">3</text>
</g>
<!-- SPRING_SERVICE&#45;&gt;library.application.service.retention.RetentionRepository -->
<g id="edge10" class="edge">
<title>SPRING_SERVICE&#45;&gt;library.application.service.retention.RetentionRepository</title>
<path fill="none" stroke="black" d="M223.52,-195.12C202.72,-210.07 173.02,-231.43 150.52,-247.61"/>
<polygon fill="black" stroke="black" points="148.36,-244.85 142.29,-253.53 152.45,-250.53 148.36,-244.85"/>
<text text-anchor="middle" x="182.02" y="-225.16" font-family="Times,serif" font-size="14.00">2</text>
</g>
<!-- SPRING_SERVICE&#45;&gt;library.application.service.retention.RetentionNotification -->
<g id="edge13" class="edge">
<title>SPRING_SERVICE&#45;&gt;library.application.service.retention.RetentionNotification</title>
<path fill="none" stroke="black" d="M283.86,-179.63C309.33,-181.45 344.66,-183.97 376.29,-186.23"/>
<polygon fill="black" stroke="black" points="376.19,-189.73 386.41,-186.95 376.69,-182.75 376.19,-189.73"/>
<text text-anchor="middle" x="325.07" y="-186.73" font-family="Times,serif" font-size="14.00">2</text>
</g>
<!-- SPRING_SERVICE&#45;&gt;library.application.service.material.MaterialRepository -->
<g id="edge2" class="edge">
<title>SPRING_SERVICE&#45;&gt;library.application.service.material.MaterialRepository</title>
<path fill="none" stroke="black" d="M260.27,-195.28C272.85,-214.83 292.98,-246.1 307.35,-268.43"/>
<polygon fill="black" stroke="black" points="304.57,-270.58 312.93,-277.09 310.46,-266.79 304.57,-270.58"/>
</g>
<!-- SPRING_SERVICE&#45;&gt;library.application.service.item.ItemRepository -->
<g id="edge3" class="edge">
<title>SPRING_SERVICE&#45;&gt;library.application.service.item.ItemRepository</title>
<path fill="none" stroke="black" d="M222.09,-159.01C202.99,-145.96 177.13,-128.28 156.92,-114.47"/>
<polygon fill="black" stroke="black" points="158.87,-111.56 148.64,-108.81 154.92,-117.34 158.87,-111.56"/>
</g>
<!-- SPRING_CONTROLLER -->
<g id="node9" class="node">
<title>SPRING_CONTROLLER</title>
<polygon fill="#eedd82" stroke="black" points="331.02,-36.41 242.02,-36.41 242.02,-32.41 238.02,-32.41 238.02,-28.41 242.02,-28.41 242.02,-8.41 238.02,-8.41 238.02,-4.41 242.02,-4.41 242.02,-0.41 331.02,-0.41 331.02,-36.41"/>
<polyline fill="none" stroke="black" points="242.02,-32.41 246.02,-32.41 246.02,-28.41 242.02,-28.41 "/>
<polyline fill="none" stroke="black" points="242.02,-8.41 246.02,-8.41 246.02,-4.41 242.02,-4.41 "/>
<text text-anchor="middle" x="286.52" y="-14.71" font-family="Times,serif" font-size="14.00">Controller</text>
</g>
<!-- SPRING_CONTROLLER&#45;&gt;SPRING_SERVICE -->
<g id="edge1" class="edge">
<title>SPRING_CONTROLLER&#45;&gt;SPRING_SERVICE</title>
<path fill="none" stroke="black" d="M282.17,-36.61C275.6,-64.09 263.09,-116.38 255.33,-148.84"/>
<polygon fill="black" stroke="black" points="251.91,-148.08 252.99,-158.62 258.72,-149.71 251.91,-148.08"/>
<text text-anchor="middle" x="259.25" y="-81.53" font-family="Times,serif" font-size="14.00">10</text>
</g>
<!-- library.infrastructure.transfer.SimpleRetentionNotification -->
<g id="node10" class="node">
<title>library.infrastructure.transfer.SimpleRetentionNotification</title>
<polygon fill="lightgrey" stroke="black" points="806.94,-206.48 587.94,-206.48 587.94,-170.48 806.94,-170.48 806.94,-206.48"/>
<text text-anchor="middle" x="697.44" y="-184.78" font-family="Times,serif" font-size="14.00">SimpleRetentionNotification</text>
</g>
<!-- library.infrastructure.transfer.SimpleRetentionNotification&#45;&gt;library.application.service.retention.RetentionNotification -->
<g id="edge11" class="edge">
<title>library.infrastructure.transfer.SimpleRetentionNotification&#45;&gt;library.application.service.retention.RetentionNotification</title>
<path fill="none" stroke="black" d="M587.62,-189.86C567.7,-190.11 547.32,-190.37 528.58,-190.61"/>
<polygon fill="black" stroke="black" points="528.3,-187.11 518.35,-190.73 528.39,-194.11 528.3,-187.11"/>
</g>
<!-- SPRING_REPOSITORY -->
<g id="node11" class="node">
<title>SPRING_REPOSITORY</title>
<polygon fill="#eedd82" stroke="black" points="212.66,-242.44 118.66,-242.44 118.66,-238.44 114.66,-238.44 114.66,-234.44 118.66,-234.44 118.66,-214.44 114.66,-214.44 114.66,-210.44 118.66,-210.44 118.66,-206.44 212.66,-206.44 212.66,-242.44"/>
<polyline fill="none" stroke="black" points="118.66,-238.44 122.66,-238.44 122.66,-234.44 118.66,-234.44 "/>
<polyline fill="none" stroke="black" points="118.66,-214.44 122.66,-214.44 122.66,-210.44 118.66,-210.44 "/>
<text text-anchor="middle" x="165.66" y="-220.74" font-family="Times,serif" font-size="14.00">Repository</text>
</g>
<!-- SPRING_REPOSITORY&#45;&gt;library.application.service.member.MemberRepository -->
<g id="edge6" class="edge">
<title>SPRING_REPOSITORY&#45;&gt;library.application.service.member.MemberRepository</title>
<path fill="none" stroke="black" d="M123.7,-206.43C117.3,-203.68 110.68,-200.84 104.23,-198.08"/>
<polygon fill="black" stroke="black" points="105.54,-194.83 94.97,-194.1 102.78,-201.26 105.54,-194.83"/>
</g>
<!-- SPRING_REPOSITORY&#45;&gt;library.application.service.reservation.ReservationRepository -->
<g id="edge7" class="edge">
<title>SPRING_REPOSITORY&#45;&gt;library.application.service.reservation.ReservationRepository</title>
<path fill="none" stroke="black" d="M172.86,-242.62C182.09,-265.94 198.19,-306.62 208.94,-333.78"/>
<polygon fill="black" stroke="black" points="205.7,-335.1 212.63,-343.11 212.2,-332.52 205.7,-335.1"/>
</g>
<!-- SPRING_REPOSITORY&#45;&gt;library.application.service.loan.LoanRepository -->
<g id="edge15" class="edge">
<title>SPRING_REPOSITORY&#45;&gt;library.application.service.loan.LoanRepository</title>
<path fill="none" stroke="black" d="M187.86,-206.43C211.27,-187.44 248.23,-157.47 273.7,-136.81"/>
<polygon fill="black" stroke="black" points="275.98,-139.47 281.54,-130.45 271.57,-134.03 275.98,-139.47"/>
</g>
<!-- SPRING_REPOSITORY&#45;&gt;library.application.service.retention.RetentionRepository -->
<g id="edge14" class="edge">
<title>SPRING_REPOSITORY&#45;&gt;library.application.service.retention.RetentionRepository</title>
<path fill="none" stroke="black" d="M147.07,-242.66C145.98,-243.73 144.87,-244.81 143.76,-245.9"/>
<polygon fill="black" stroke="black" points="141.16,-243.55 136.47,-253.05 146.06,-248.55 141.16,-243.55"/>
</g>
<!-- SPRING_REPOSITORY&#45;&gt;library.application.service.material.MaterialRepository -->
<g id="edge8" class="edge">
<title>SPRING_REPOSITORY&#45;&gt;library.application.service.material.MaterialRepository</title>
<path fill="none" stroke="black" d="M206.16,-242.45C229.19,-252.69 258.01,-265.51 281.45,-275.94"/>
<polygon fill="black" stroke="black" points="280.24,-279.23 290.8,-280.1 283.09,-272.84 280.24,-279.23"/>
</g>
<!-- SPRING_REPOSITORY&#45;&gt;library.application.service.item.ItemRepository -->
<g id="edge5" class="edge">
<title>SPRING_REPOSITORY&#45;&gt;library.application.service.item.ItemRepository</title>
<path fill="none" stroke="black" d="M160.11,-206.4C153.29,-184.26 141.66,-146.47 133.69,-120.59"/>
<polygon fill="black" stroke="black" points="137.02,-119.5 130.73,-110.97 130.33,-121.56 137.02,-119.5"/>
</g>
</g>
</svg>
